Coordinates
version=1
nRows=26
nColumns=24
inDegrees=yes

Units are S.I. units (second, meters, Newtons, ...)
Angles are in degrees.

endheader
time	pelvis_tilt	pelvis_list	pelvis_rotation	pelvis_tx	pelvis_ty	pelvis_tz	hip_flexion_r	hip_adduction_r	hip_rotation_r	knee_angle_r	ankle_angle_r	subtalar_angle_r	mtp_angle_r	hip_flexion_l	hip_adduction_l	hip_rotation_l	knee_angle_l	ankle_angle_l	subtalar_angle_l	mtp_angle_l	lumbar_extension	lumbar_bending	lumbar_rotation
      4.05500000	     -0.74916700	     -2.59275562	     -6.34310718	     -0.88026556	      0.91036565	      0.25243630	    -11.82238264	      6.83107106	      5.82381837	    -18.69805734	     26.73473117	     -1.27269436	      0.00000000	     28.68627309	     -2.55632680	     -9.02710269	     -8.18103636	      9.89908417	     -5.52599051	      0.00000000	    -11.19565176	     -0.36821318	      0.48832967
      4.06000000	     -0.79414507	     -2.32780004	     -6.28316163	     -0.87220254	      0.90927571	      0.25177403	    -11.92345844	      6.40112851	      5.32662941	    -19.37043738	     26.81357329	     -0.48574717	      0.00000000	     29.01074966	     -2.22751623	     -8.94152429	     -9.38876400	      9.51818338	     -5.46538479	      0.00000000	    -11.05059562	     -0.65853934	      0.45613335
      4.06500000	     -0.83760950	     -2.04225548	     -6.23165511	     -0.86419184	      0.90825524	      0.25109660	    -11.95794415	      5.94084312	      4.77086769	    -20.15563972	     26.85683366	      0.34505340	      0.00000000	     29.32738746	     -1.87398155	     -8.73243406	    -10.61422579	      9.02320013	     -5.44177540	      0.00000000	    -10.92139958	     -0.97752567	      0.43415326
      4.07000000	     -0.89428769	     -1.69453105	     -6.13915614	     -0.85614363	      0.90732545	      0.25032869	    -11.94425232	      5.42469623	      4.20229788	    -20.98933320	     26.81566523	      1.12213603	      0.00000000	     29.65307612	     -1.42936398	     -8.47220485	    -11.82894482	      8.36833685	     -5.45983478	      0.00000000	    -10.76940873	     -1.35800859	      0.37706191
      4.07500000	     -0.96220181	     -1.28282843	     -6.02803075	     -0.84806629	      0.90647720	      0.24953942	    -11.87150727	      4.84985697	      3.63299220	    -21.89941147	     26.70239879	      1.84641117	      0.00000000	     29.98586941	     -0.90644452	     -8.15075806	    -13.03974661	      7.64397826	     -5.50300799	      0.00000000	    -10.59576857	     -1.81602585	      0.28911103
      4.08000000	     -1.03867091	     -0.81996000	     -5.90019161	     -0.83998981	      0.90572250	      0.24872263	    -11.73619706	      4.22658869	      3.05671287	    -22.89571671	     26.50785358	      2.53082579	      0.00000000	     30.32607818	     -0.31620872	     -7.78312734	    -14.24514084	      6.87420728	     -5.59617664	      0.00000000	    -10.41209195	     -2.33455709	      0.18374329
      4.08500000	     -1.12023487	     -0.31423875	     -5.76046174	     -0.83191895	      0.90506527	      0.24788268	    -11.53935089	      3.56116903	      2.48144588	    -23.98388558	     26.22175730	      3.17238229	      0.00000000	     30.67011398	      0.33122697	     -7.38687446	    -15.44683239	      6.09989539	     -5.74547007	      0.00000000	    -10.22247233	     -2.90696624	      0.06518647
      4.09000000	     -1.20299494	      0.22320822	     -5.61095692	     -0.82384541	      0.90449618	      0.24704346	    -11.28597726	      2.86630414	      1.91795143	    -25.16572090	     25.83487810	      3.76357069	      0.00000000	     31.01293595	      1.02255206	     -6.97964202	    -16.64591807	      5.36861260	     -5.95472206	      0.00000000	    -10.03255094	     -3.51954462	     -0.06051775
      4.09500000	     -1.28099982	      0.77981735	     -5.46378842	     -0.81576287	      0.90400760	      0.24621543	    -10.97987153	      2.15047028	      1.37567528	    -26.44583336	     25.33732565	      4.30171255	      0.00000000	     31.34352595	      1.74087130	     -6.57717367	    -17.84000844	      4.73126335	     -6.22831001	      0.00000000	     -9.84781823	     -4.15849086	     -0.18716323
      4.10000000	     -1.35178107	      1.34305529	     -5.30839950	     -0.80769062	      0.90360025	      0.24539747	    -10.62893621	      1.43014198	      0.86385587	    -27.81317459	     24.72460106	      4.79409149	      0.00000000	     31.65797411	      2.47579753	     -6.18243802	    -19.02267046	      4.18443694	     -6.54667271	      0.00000000	     -9.67615203	     -4.81274456	     -0.30364683
      4.10500000	     -1.40832116	      1.90313488	     -5.16843019	     -0.79961028	      0.90326349	      0.24460838	    -10.23392279	      0.70884938	      0.39604745	    -29.27666581	     23.97574443	      5.22256854	      0.00000000	     31.93808641	      3.20742628	     -5.81753431	    -20.18461526	      3.79727644	     -6.89760694	      0.00000000	     -9.52023216	     -5.46790636	     -0.41643031
      4.11000000	     -1.45150098	      2.45947192	     -5.03168342	     -0.79151905	      0.90299206	      0.24386634	     -9.79840541	     -0.00640504	     -0.02972042	    -30.82550136	     23.08313312	      5.57803679	      0.00000000	     32.17981226	      3.93310082	     -5.51057696	    -21.31427491	      3.57138626	     -7.24205416	      0.00000000	     -9.37730580	     -6.12460179	     -0.52174477
      4.11500000	     -1.48267823	      2.98051705	     -4.91399715	     -0.78344992	      0.90277493	      0.24308726	     -9.31023813	     -0.70224644	     -0.43470806	    -32.46826815	     22.03155904	      5.89750429	      0.00000000	     32.37665754	      4.62868253	     -5.23402861	    -22.39889898	      3.50871808	     -7.63132121	      0.00000000	     -9.25509961	     -6.73274181	     -0.58426464
      4.12000000	     -1.49881300	      3.50240222	     -4.79566792	     -0.77540086	      0.90262785	      0.24237231	     -8.78955996	     -1.38720712	     -0.76578154	    -34.17039011	     20.82667135	      6.11215043	      0.00000000	     32.52462258	      5.31253793	     -5.04002924	    -23.43434540	      3.60917352	     -7.90617459	      0.00000000	     -9.15121438	     -7.35249274	     -0.66465748
      4.12500000	     -1.51241807	      3.99848523	     -4.69251913	     -0.76738966	      0.90252606	      0.24164546	     -8.20980180	     -2.05551091	     -1.07064779	    -35.94236784	     19.45601187	      6.24979412	      0.00000000	     32.62604343	      5.96630300	     -4.89690042	    -24.40031246	      3.84456408	     -8.16244172	      0.00000000	     -9.05352024	     -7.92996004	     -0.71501725
      4.13000000	     -1.49379536	      4.46875234	     -4.58036464	     -0.75935955	      0.90253931	      0.24096285	     -7.63709560	     -2.68062842	     -1.31685591	    -37.71983161	     17.87843938	      6.20793646	      0.00000000	     32.63551110	      6.58955114	     -4.82447288	    -25.28225648	      4.25134966	     -8.31037605	      0.00000000	     -8.98875933	     -8.48666496	     -0.78942150
      4.13500000	     -1.51997218	      4.93793871	     -4.48454605	     -0.75153136	      0.90252792	      0.24022071	     -6.92420028	     -3.32098117	     -1.53399089	    -39.59501478	     16.21847427	      6.15876326	      0.00000000	     32.66234927	      7.19784512	     -4.79286318	    -26.08996078	      4.67312189	     -8.42037378	      0.00000000	     -8.90364987	     -9.02597893	     -0.83129311
      4.14000000	     -1.49268919	      5.36554298	     -4.37372142	     -0.74366761	      0.90267841	      0.23946655	     -6.25952212	     -3.90671466	     -1.72887048	    -41.42205811	     14.35214306	      5.86590712	      0.00000000	     32.56168703	      7.77414436	     -4.79215751	    -26.79550926	      5.23226713	     -8.46538952	      0.00000000	     -8.87218277	     -9.50709750	     -0.90382809
      4.14500000	     -1.59307221	      5.79879306	     -4.30021700	     -0.73599633	      0.90269329	      0.23871400	     -5.36294111	     -4.50700670	     -1.86403669	    -43.32937619	     12.44506636	      5.51807768	      0.00000000	     32.57535016	      8.30056233	     -4.92318660	    -27.44062448	      5.80662286	     -8.39557058	      0.00000000	     -8.70363905	     -9.98226080	     -0.91546806
      4.15000000	     -1.55888276	      6.21035348	     -4.15848926	     -0.72830575	      0.90302130	      0.23792891	     -4.63219085	     -5.06156959	     -2.02451514	    -45.13074995	     10.38486338	      4.88818201	      0.00000000	     32.35166968	      8.86141008	     -4.95894776	    -27.93504140	      6.41830951	     -8.31760487	      0.00000000	     -8.71023346	    -10.44204709	     -1.04853796
      4.15500000	     -1.68036064	      6.58133653	     -4.07520935	     -0.72083396	      0.90318793	      0.23721949	     -3.64637905	     -5.56314769	     -2.08222261	    -46.97236925	      8.30757839	      4.10219085	      0.00000000	     32.28751298	      9.29682059	     -5.17981768	    -28.40915325	      7.09036876	     -8.04495983	      0.00000000	     -8.54269213	    -10.83971388	     -1.07948648
      4.16000000	     -1.65257716	      6.99730897	     -3.92188866	     -0.71328972	      0.90366087	      0.23633321	     -2.84335835	     -6.13001827	     -2.23998396	    -48.71322760	      6.23497656	      3.13518025	      0.00000000	     31.96041358	      9.86436732	     -5.24263925	    -28.69665222	      7.69688800	     -7.90252539	      0.00000000	     -8.55622810	    -11.27585870	     -1.26897136
      4.16500000	     -1.77533068	      7.31965033	     -3.82477322	     -0.70601369	      0.90400463	      0.23561515	     -1.80409539	     -6.55848810	     -2.26108986	    -50.45408155	      4.17603143	      1.93321931	      0.00000000	     31.79516410	     10.24827544	     -5.46695914	    -28.98874086	      8.37243052	     -7.53893192	      0.00000000	     -8.41455616	    -11.60632073	     -1.33651428
      4.17000000	     -1.78118828	      7.71984475	     -3.68433432	     -0.69863038	      0.90457529	      0.23472804	     -0.90622491	     -7.10163017	     -2.37315367	    -52.11093701	      2.27729610	      0.62541421	      0.00000000	     31.40964370	     10.78318489	     -5.57028163	    -29.09765476	      8.95606453	     -7.34400242	      0.00000000	     -8.40010544	    -12.00880466	     -1.56510417
      4.17500000	     -1.87000262	      8.03555227	     -3.57384534	     -0.69148625	      0.90512197	      0.23397079	      0.12993784	     -7.51237567	     -2.37352994	    -53.73162380	      0.46789593	     -0.88837591	      0.00000000	     31.11065951	     11.18433822	     -5.72630259	    -29.20685193	      9.54478779	     -7.01407436	      0.00000000	     -8.31758690	    -12.32333643	     -1.69094971
      4.18000000	     -1.93989574	      8.37316089	     -3.46236779	     -0.68430750	      0.90573388	      0.23315876	      1.15126207	     -7.96036391	     -2.39499743	    -55.29025111	     -1.08709782	     -2.49305359	      0.00000000	     30.72814065	     11.62980848	     -5.83175434	    -29.19986009	     10.11731565	     -6.74491521	      0.00000000	     -8.24289051	    -12.64725061	     -1.87212444
